<?xml version="1.0" encoding="utf-8"?>
<!-- Generator: Adobe Illustrator 22.1.0, SVG Export Plug-In . SVG Version: 6.00 Build 0)  -->
<svg version="1.1" id="레이어_1" xmlns="http://www.w3.org/2000/svg" xmlns:xlink="http://www.w3.org/1999/xlink" x="0px"
	 y="0px" viewBox="0 0 80 24" style="enable-background:new 0 0 80 24;" xml:space="preserve">
<style type="text/css">
	.st0{fill:none;}
</style>
<g>
	<g>
		<path d="M28.5,3.4h3.9V17h8.4v3.2H28.5V3.4z"/>
		<path d="M45.2,19.4c-1.4-0.7-2.5-1.8-3.3-3.1c-0.8-1.3-1.2-2.8-1.2-4.5s0.4-3.2,1.2-4.5s1.9-2.4,3.3-3.1c1.4-0.7,2.9-1.1,4.7-1.1
			c1.5,0,2.8,0.3,3.9,0.8c1.2,0.5,2.2,1.2,3,2.2l-2.5,2.3c-1.1-1.3-2.5-2-4.2-2c-1,0-2,0.2-2.8,0.7c-0.8,0.5-1.5,1.1-1.9,1.9
			s-0.7,1.7-0.7,2.8s0.2,2,0.7,2.8c0.5,0.8,1.1,1.5,1.9,1.9s1.7,0.7,2.8,0.7c1.7,0,3.1-0.7,4.2-2l2.5,2.3c-0.8,1-1.8,1.7-3,2.2
			c-1.2,0.5-2.5,0.8-4,0.8C48.1,20.5,46.6,20.1,45.2,19.4z"/>
		<path d="M73.7,20.2l0-10.1l-4.9,8.3H67l-4.9-8.1v9.9h-3.6V3.4h3.2l6.3,10.4l6.2-10.4h3.2l0,16.8H73.7z"/>
	</g>
</g>
<g>
	<polygon class="st0" points="4.4,17.9 8.7,17.9 4.4,10.1 	"/>
	<path class="st0" d="M9.5,15.4l2.6,4.7l2.6-4.6c-0.8,0.3-1.7,0.4-2.5,0.4C11.3,15.9,10.4,15.7,9.5,15.4z"/>
	<path d="M22.2,5.3h-1.7l-3.7,6.4l0,0c-0.1,0.2-0.3,0.4-0.5,0.6c-0.1,0.1-0.2,0.2-0.3,0.3c-1.7,1.5-4.1,1.9-6.2,1
		c-1.4-0.6-2.5-1.7-3.1-3.2c-0.6-1.4-0.6-3,0.1-4.4c1.3-2.9,4.7-4.3,7.7-3.1c0.8,0.4,1.6,0.9,2.1,1.6l0,0l1-1.7
		C17,2,16.2,1.4,15.3,1C11.4-0.6,6.8,1.2,5.1,5.1c-0.2,0.5-0.4,1-0.5,1.5L4.4,6V0.8H2.3v19.2h7.6l1.7,3l0.6,1l8.1-14.1l0,10.1h0
		l2-3.5L22.2,5.3z M4.4,17.9v-7.9l4.4,7.9H4.4z M12.1,20l-2.6-4.7c0.9,0.3,1.8,0.5,2.7,0.5c0.9,0,1.7-0.1,2.5-0.4L12.1,20z"/>
</g>
</svg>
