<?xml version="1.0" encoding="utf-8"?>
<!-- Generator: Adobe Illustrator 22.1.0, SVG Export Plug-In . SVG Version: 6.00 Build 0)  -->
<svg version="1.1" id="레이어_1" xmlns="http://www.w3.org/2000/svg" xmlns:xlink="http://www.w3.org/1999/xlink" x="0px"
	 y="0px" viewBox="0 0 100 100" style="enable-background:new 0 0 100 100;" xml:space="preserve">
<g>
	<path d="M83.8,28.3h-5.7L65.7,50.1l-0.1-0.1c-0.5,0.7-1.1,1.3-1.6,1.9c-0.3,0.3-0.6,0.6-0.9,0.9c-5.7,5-13.9,6.4-20.9,3.4
		c-4.9-2.1-8.6-5.9-10.6-10.8c-2-4.9-1.9-10.3,0.2-15.1c4.3-10,15.9-14.7,26-10.4c2.8,1.2,5.3,3,7.3,5.3l0.1-0.1l3.3-5.7
		c-2.3-2.3-5-4.2-8.1-5.5c-13.3-5.7-28.8,0.5-34.5,13.8c-0.7,1.6-1.2,3.3-1.6,4.9l-1-1.9V13.1h-7.1v65h25.6l5.7,10.3l1.9,3.5
		l27.6-47.9L77,78.1h0l6.9-12L83.8,28.3z M23.1,71.3V44.6l14.8,26.7H23.1z M49.4,78.5l-8.7-15.9c3,1.1,6.1,1.7,9.2,1.7
		c2.9,0,5.8-0.5,8.5-1.4L49.4,78.5z"/>
</g>
</svg>
