<?xml version="1.0" encoding="utf-8"?>
<!-- Generator: Adobe Illustrator 22.1.0, SVG Export Plug-In . SVG Version: 6.00 Build 0)  -->
<svg version="1.1" id="레이어_1" xmlns="http://www.w3.org/2000/svg" xmlns:xlink="http://www.w3.org/1999/xlink" x="0px"
	 y="0px" viewBox="0 0 50 20" style="enable-background:new 0 0 50 20;" xml:space="preserve">
<style type="text/css">
	.st0{fill:none;}
</style>
<g>
	<g>
		<path d="M0.5,1.4h3.9V15h8.4v3.2H0.5V1.4z"/>
		<path d="M17.2,17.4c-1.4-0.7-2.5-1.8-3.3-3.1c-0.8-1.3-1.2-2.8-1.2-4.5s0.4-3.2,1.2-4.5s1.9-2.4,3.3-3.1c1.4-0.7,2.9-1.1,4.7-1.1
			c1.5,0,2.8,0.3,3.9,0.8c1.2,0.5,2.2,1.2,3,2.2l-2.5,2.3c-1.1-1.3-2.5-2-4.2-2c-1,0-2,0.2-2.8,0.7c-0.8,0.5-1.5,1.1-1.9,1.9
			s-0.7,1.7-0.7,2.8s0.2,2,0.7,2.8c0.5,0.8,1.1,1.5,1.9,1.9s1.7,0.7,2.8,0.7c1.7,0,3.1-0.7,4.2-2l2.5,2.3c-0.8,1-1.8,1.7-3,2.2
			c-1.2,0.5-2.5,0.8-4,0.8C20.1,18.5,18.6,18.1,17.2,17.4z"/>
		<path d="M45.7,18.2l0-10.1l-4.9,8.3H39l-4.9-8.1v9.9h-3.6V1.4h3.2l6.3,10.4l6.2-10.4h3.2l0,16.8H45.7z"/>
	</g>
</g>
</svg>
